<?xml version="1.0" encoding="utf-8"?>
<!-- Generator: Adobe Illustrator 24.0.1, SVG Export Plug-In . SVG Version: 6.00 Build 0)  -->
<svg version="1.1" id="Layer_1" xmlns="http://www.w3.org/2000/svg" xmlns:xlink="http://www.w3.org/1999/xlink" x="0px" y="0px"
	 viewBox="0 0 547 800" style="enable-background:new 0 0 547 800;" xml:space="preserve">
<style type="text/css">
	.st0{fill:#513C92;}
</style>
<g>
	<circle class="st0" cx="273.5" cy="105.87" r="79.51"/>
	<path class="st0" d="M413.07,524.59H133.93c-5.16,0-9.38-4.22-9.38-9.38V223.08c0-5.16,4.22-9.38,9.38-9.38h279.14
		c5.16,0,9.38,4.22,9.38,9.38v292.14C422.45,520.37,418.23,524.59,413.07,524.59z"/>
	<path class="st0" d="M348.14,773.64H198.86c-6.6,0-12-5.4-12-12V431.23c0-6.6,5.4-12,12-12h149.29c6.6,0,12,5.4,12,12v330.42
		C360.14,768.24,354.74,773.64,348.14,773.64z"/>
</g>
</svg>
